<?xml version="1.0" encoding="utf-8"?>
<!-- Generator: Adobe Illustrator 24.0.1, SVG Export Plug-In . SVG Version: 6.00 Build 0)  -->
<svg version="1.1" id="圖層_1" xmlns="http://www.w3.org/2000/svg" xmlns:xlink="http://www.w3.org/1999/xlink" x="0px" y="0px"
	 viewBox="0 0 512 512" style="enable-background:new 0 0 512 512;" xml:space="preserve">
<style type="text/css">
	.st0{fill:#FFFFFF;}
</style>
<path class="st0" d="M464.9,32H239.9c-26,0-47.1,21.1-47.1,47.1v110.8c11.9,5.9,24.7,12.3,36.7,18.3l18.3-36.7
	c11.1-22.2,38.2-31.2,60.4-20.1c22.2,11.1,31.3,38.1,20.1,60.4l-32.7,65.4c0.9,8.7,0.1,17.4-2.3,25.8h21.6l-57,156.6
	c-3.4,9.3,3.2,20.1,14.1,20.1c6.1,0,11.9-3.8,14.1-9.9L346.8,303h10.5l61.3,166.9c2.2,6.1,8,9.8,14.1,9.8
	c10.2,0,17.7-10.2,14.1-20.2L389.3,303h75.6c26,0,47.1-21.1,47.1-47.1V79.1C512,53.1,490.9,32,464.9,32z M432.7,238.7h-67.3
	c-8.3,0-15-6.7-15-15c0-8.3,6.7-15,15-15h67.3c8.3,0,15,6.7,15,15C447.7,232,441,238.7,432.7,238.7z M432.7,182.5h-67.3
	c-8.3,0-15-6.7-15-15c0-8.3,6.7-15,15-15h67.3c8.3,0,15,6.7,15,15C447.7,175.8,441,182.5,432.7,182.5z M432.7,126.3H272.1
	c-8.3,0-15-6.7-15-15s6.7-15,15-15h160.7c8.3,0,15,6.7,15,15S441,126.3,432.7,126.3z"/>
<path class="st0" d="M263.9,296.6c2.7-7.9,2.7-16.2,0.4-23.8l37.2-74.4c3.7-7.4,0.7-16.4-6.7-20.1c-7.4-3.7-16.4-0.7-20.1,6.7
	L243,248.4c-19-9.4-47.8-23.8-71-35.3c-21.6-10.7-37-20.4-63.3-20.4H95.3c20.5,0,38.8-9.4,50.7-24.2c9.1-11.2,14.6-25.5,14.6-41.1
	c0-36.1-29.3-65.3-65.3-65.3C59.3,62,30,91.3,30,127.3c0,17.3,6.8,33.1,17.8,44.8c11.9,12.7,28.8,20.6,47.6,20.6
	c-25.1,0-49.7,10.2-67.4,27.9C9.9,238.6,0,262.5,0,288v48.2c0,20.8,13.5,38.4,32.1,44.7v83.8c0,8.3,6.7,15,15,15h96.4
	c8.3,0,15-6.7,15-15V296.2c14.2,7.1,32.9,16.4,48,24c10.6,5.3,23,5.8,34,1.3c11-4.5,19.5-13.6,23.3-24.8
	C263.9,296.7,263.9,296.6,263.9,296.6z"/>
</svg>
