<?xml version="1.0" encoding="utf-8"?>
<!-- Generator: Adobe Illustrator 24.0.1, SVG Export Plug-In . SVG Version: 6.00 Build 0)  -->
<svg version="1.1" id="圖層_1" xmlns="http://www.w3.org/2000/svg" xmlns:xlink="http://www.w3.org/1999/xlink" x="0px" y="0px"
	 viewBox="0 0 512 512" style="enable-background:new 0 0 512 512;" xml:space="preserve">
<style type="text/css">
	.st0{fill:#FFFFFF;}
</style>
<g id="Page-1">
	<g id="_x30_18---Cross">
		<path id="Shape" class="st0" d="M0,27.4v457.1C0,499.7,12.3,512,27.4,512h402.3c15.1,0,27.4-12.3,27.4-27.4V27.4
			c0-15.1-12.3-27.4-27.4-27.4H27.4C12.3,0,0,12.3,0,27.4z M171.7,247.9L66,142.3c-2.1-2.2-3.3-5.1-3.4-8.1c0-3.1,1.2-6,3.4-8.1
			l32.5-32.5c4.5-4.5,11.8-4.5,16.3,0l105.6,105.7c4.5,4.5,11.8,4.5,16.3,0L342.3,93.4c4.5-4.5,11.8-4.5,16.3,0l32.5,32.5
			c2.2,2.2,3.4,5.1,3.4,8.1c0,3-1.2,6-3.4,8.1L285.4,247.9c-4.5,4.5-4.5,11.8,0,16.3l105.7,105.6c2.1,2.2,3.3,5.1,3.4,8.1
			c0,3.1-1.2,6-3.4,8.1l-32.5,32.5c-4.5,4.5-11.8,4.5-16.3,0L236.7,312.9c-4.5-4.5-11.8-4.5-16.3,0L114.8,418.6
			c-4.5,4.5-11.8,4.5-16.3,0L66,386c-2.2-2.2-3.4-5.1-3.4-8.1c0-3,1.2-6,3.4-8.1l105.7-105.6C176.2,259.6,176.2,252.4,171.7,247.9
			L171.7,247.9z"/>
		<path id="Shape_1_" class="st0" d="M512,27.4C512,12.3,499.7,0,484.6,0H466c6.1,7.9,9.4,17.5,9.4,27.4v457.1
			c0,9.9-3.3,19.6-9.4,27.4h18.6c15.1,0,27.4-12.3,27.4-27.4V27.4z"/>
	</g>
</g>
</svg>
