<?xml version="1.0" encoding="utf-8"?>
<!-- Generator: Adobe Illustrator 24.0.1, SVG Export Plug-In . SVG Version: 6.00 Build 0)  -->
<svg version="1.1" id="Layer_1" xmlns="http://www.w3.org/2000/svg" xmlns:xlink="http://www.w3.org/1999/xlink" x="0px" y="0px"
	 viewBox="0 0 512 512" style="enable-background:new 0 0 512 512;" xml:space="preserve">
<style type="text/css">
	.st0{fill:#FFFFFF;}
</style>
<g>
	<path class="st0" d="M432.7,265.1h-9.1V256c0-8.3-6.7-15-15-15s-15,6.7-15,15v9.1h-9.1c-8.3,0-15,6.7-15,15s6.7,15,15,15h9.1v9.1
		c0,8.3,6.7,15,15,15s15-6.7,15-15v-9.1h9.1c8.3,0,15-6.7,15-15S441,265.1,432.7,265.1z"/>
	<path class="st0" d="M79.3,54.1h9.1v9.1c0,8.3,6.7,15,15,15s15-6.7,15-15v-9.1h9.1c8.3,0,15-6.7,15-15s-6.7-15-15-15h-9.1V15
		c0-8.3-6.7-15-15-15s-15,6.7-15,15v9.1h-9.1c-8.3,0-15,6.7-15,15S71,54.1,79.3,54.1z"/>
	<path class="st0" d="M131.8,262.3c6.2-1.9,10.6-7.6,10.6-14.4c0-6.7-4.4-12.4-10.6-14.3c-21.7-7.3-39-24.6-46.3-46.3
		c-1.9-6.2-7.6-10.6-14.4-10.6c-6.7,0-12.4,4.4-14.3,10.6c-7.3,21.7-24.6,39-46.3,46.3C4.5,235.5,0,241.2,0,248
		c0,6.7,4.4,12.4,10.6,14.3c21.7,7.3,39,24.6,46.3,46.3c1.9,6.2,7.6,10.6,14.4,10.6c6.7,0,12.4-4.4,14.3-10.6
		C92.9,287,110.2,269.7,131.8,262.3L131.8,262.3z"/>
	<path class="st0" d="M338,325.6c-14.7-31.9-46.9-52.5-82-52.5c-35.1,0-67.3,20.6-82,52.5l-12.9,27.9h189.8L338,325.6z"/>
	<path class="st0" d="M271,244.1V15c0-8.3-6.7-15-15-15s-15,6.7-15,15v229.1c4.9-0.6,9.9-1,15-1C261,243.1,266.1,243.4,271,244.1z"
		/>
	<path class="st0" d="M364.7,383.4H147.3L97.8,490.7c-2.1,4.6-1.8,10.1,1,14.4s7.5,6.9,12.6,6.9h36.4c20,0,38.5-8,52-21.6
		c23.4,23.7,52,21.6,56.4,21.6c4.2,0,32.7,2.1,56.1-21.6c13.5,13.7,32,21.6,52,21.6h36.4c5.1,0,9.9-2.6,12.6-6.9s3.1-9.7,1-14.4
		L364.7,383.4z"/>
	<path class="st0" d="M501.4,56.9c-21.7-7.3-39-24.6-46.3-46.3C453.3,4.5,447.5,0,440.8,0c-6.7,0-12.4,4.4-14.3,10.6
		c-7.3,21.7-24.6,39-46.3,46.3c-6.2,1.9-10.6,7.6-10.6,14.4c0,6.7,4.4,12.4,10.6,14.3c21.7,7.3,39,24.6,46.3,46.3
		c1.9,6.2,7.6,10.6,14.4,10.6c6.7,0,12.4-4.4,14.3-10.6c7.3-21.7,24.6-39,46.3-46.3c6.2-1.9,10.6-7.6,10.6-14.4
		C512,64.5,507.6,58.8,501.4,56.9L501.4,56.9z"/>
</g>
</svg>
