<?xml version="1.0" encoding="iso-8859-1"?>
<!-- Generator: Adobe Illustrator 19.0.0, SVG Export Plug-In . SVG Version: 6.00 Build 0)  -->
<svg version="1.1" id="Capa_1" xmlns="http://www.w3.org/2000/svg" xmlns:xlink="http://www.w3.org/1999/xlink" x="0px" y="0px"
	 viewBox="0 0 512 512" style="enable-background:new 0 0 512 512;" xml:space="preserve">
<g>
	<g>
		<path d="M100,281v25c0,24.813,20.187,45,45,45h222c24.813,0,45-20.187,45-45v-25H100z M368,338c-8.284,0-15-6.716-15-15
			s6.716-15,15-15s15,6.716,15,15S376.284,338,368,338z"/>
	</g>
</g>
<g>
	<g>
		<rect x="100" y="431" width="312" height="50"/>
	</g>
</g>
<g>
	<g>
		<path d="M442,281v25c0,41.355-33.645,75-75,75H145c-41.355,0-75-33.645-75-75v-25H0v200h70v-80h372v80h70V281H442z"/>
	</g>
</g>
<g>
	<g>
		<path d="M106,31v220h300V31H106z M321,231H151v-30h170V231z M361,171H151v-30h210V171z M361,111H181V81h180V111z"/>
	</g>
</g>
<g>
</g>
<g>
</g>
<g>
</g>
<g>
</g>
<g>
</g>
<g>
</g>
<g>
</g>
<g>
</g>
<g>
</g>
<g>
</g>
<g>
</g>
<g>
</g>
<g>
</g>
<g>
</g>
<g>
</g>
</svg>
