<?xml version="1.0" encoding="utf-8"?>
<!-- Generator: Adobe Illustrator 24.0.1, SVG Export Plug-In . SVG Version: 6.00 Build 0)  -->
<svg version="1.1" id="Layer_1" xmlns="http://www.w3.org/2000/svg" xmlns:xlink="http://www.w3.org/1999/xlink" x="0px" y="0px"
	 viewBox="0 0 512 512" style="enable-background:new 0 0 512 512;" xml:space="preserve">
<style type="text/css">
	.st0{fill:#FFFFFF;}
</style>
<g>
	<path class="st0" d="M0,413.6v17.6c0,8.3,6.7,15,15,15h226v-30H15C9.7,416.2,4.7,415.3,0,413.6z"/>
	<path class="st0" d="M497,65.8H304.2c-18.8,0-33.2,15.3-33.2,33.4v233.2c9.7-6,21-9.5,33.2-9.5H497c8.3,0,15-6.7,15-15V80.8
		C512,72.5,505.3,65.8,497,65.8z M447.7,273.6h-112c-8.1,0-15-6.2-15.4-14.3c-0.4-8.6,6.5-15.7,15-15.7h112c8.1,0,15,6.2,15.4,14.3
		C463.1,266.5,456.3,273.6,447.7,273.6z M320.3,195.1c-0.4-8.6,6.5-15.7,15-15.7h79.9c8.1,0,15,6.2,15.4,14.3
		c0.4,8.6-6.5,15.7-15,15.7h-79.9C327.6,209.4,320.7,203.2,320.3,195.1z M447.7,145.1h-112c-8.1,0-15-6.2-15.4-14.3
		c-0.4-8.6,6.5-15.7,15-15.7h112c8.1,0,15,6.2,15.4,14.3C463.1,138,456.3,145.1,447.7,145.1L447.7,145.1z"/>
	<path class="st0" d="M207.8,65.8H15c-8.3,0-15,6.7-15,15v227.1c0,8.3,6.7,15,15,15h192.8c12.2,0,23.5,3.5,33.2,9.5V99.2
		C241,81.2,226.6,65.8,207.8,65.8z M176.7,273.6h-112c-8.1,0-15-6.2-15.4-14.3c-0.4-8.6,6.5-15.7,15-15.7h112
		c8.1,0,15,6.2,15.4,14.3C192.1,266.5,185.3,273.6,176.7,273.6z M49.3,193.6c0.4-8.1,7.3-14.3,15.4-14.3h79.5
		c8.1,0,15,6.2,15.4,14.3c0.4,8.6-6.5,15.7-15,15.7H64.3C55.7,209.4,48.9,202.3,49.3,193.6z M176.7,145.1h-112
		c-8.1,0-15-6.2-15.4-14.3c-0.4-8.6,6.5-15.7,15-15.7h112c8.1,0,15,6.2,15.4,14.3C192.1,138,185.3,145.1,176.7,145.1L176.7,145.1z"
		/>
	<path class="st0" d="M207.8,352.9H15c-5.3,0-10.3-0.9-15-2.6v20.8c0,8.3,6.7,15,15,15h226C241,367.4,225.6,352.9,207.8,352.9
		L207.8,352.9z"/>
	<path class="st0" d="M271,416.2v30h226c8.3,0,15-6.7,15-15v-17.6c-4.7,1.7-9.7,2.6-15,2.6H271z"/>
	<path class="st0" d="M304.2,352.9c-17.8,0-33.2,14.5-33.2,33.3h226c8.3,0,15-6.7,15-15v-20.8c-4.7,1.7-9.7,2.6-15,2.6L304.2,352.9
		L304.2,352.9z"/>
</g>
</svg>
