<?xml version="1.0" encoding="iso-8859-1"?>
<!-- Generator: Adobe Illustrator 19.0.0, SVG Export Plug-In . SVG Version: 6.00 Build 0)  -->
<svg version="1.1" id="Capa_1" xmlns="http://www.w3.org/2000/svg" xmlns:xlink="http://www.w3.org/1999/xlink" x="0px" y="0px"
	 viewBox="0 0 512 512" style="enable-background:new 0 0 512 512;" xml:space="preserve">
<g>
	<g>
		<path d="M0,406.001v35c0,8.284,6.716,15,15,15h482c8.284,0,15-6.716,15-15v-35H0z"/>
	</g>
</g>
<g>
	<g>
		<path d="M504.097,257.786L133.118,57.798c-7.294-3.931-16.391-1.206-20.322,6.086c-3.931,7.292-1.206,16.39,6.086,20.321
			l318.682,171.796H75c-41.355,0-75,33.645-75,75v45h512V271.034C512.005,265.364,508.815,260.326,504.097,257.786z M86,336.001
			c-11.046,0-20-8.954-20-20c0-11.046,8.954-20,20-20s20,8.954,20,20C106,327.047,97.046,336.001,86,336.001z M146,336.001
			c-11.046,0-20-8.954-20-20c0-11.046,8.954-20,20-20s20,8.954,20,20C166,327.047,157.046,336.001,146,336.001z"/>
	</g>
</g>
<g>
</g>
<g>
</g>
<g>
</g>
<g>
</g>
<g>
</g>
<g>
</g>
<g>
</g>
<g>
</g>
<g>
</g>
<g>
</g>
<g>
</g>
<g>
</g>
<g>
</g>
<g>
</g>
<g>
</g>
</svg>
