<svg xmlns="http://www.w3.org/2000/svg" viewBox="0 0 346.91 345.67"><defs><style>.cls-1{fill:#cf000e;}</style></defs><title>資產 1</title><g id="圖層_2" data-name="圖層 2"><path class="cls-1" d="M27.18,172.61c0,79.8,64.92,144.72,144.72,144.72s144.72-64.92,144.72-144.72S251.7,27.88,171.9,27.88,27.18,92.81,27.18,172.61Zm4,0C31.18,95,94.3,31.88,171.9,31.88S312.62,95,312.62,172.61,249.5,313.33,171.9,313.33,31.18,250.2,31.18,172.61Z"/><path class="cls-1" d="M70.36,173A102.21,102.21,0,1,0,172.57,70.8,102.32,102.32,0,0,0,70.36,173Zm4,0a98.21,98.21,0,1,1,98.21,98.2A98.33,98.33,0,0,1,74.36,173Z"/><path class="cls-1" d="M201.31,3.14S200.24,8,199.82,9.93C186.2,7.6,169.15,7.86,158.39,8.85L157,9s-.1,8.32-.12,10.3c-14.88,1.9-24.8,3.94-37.79,9.35l-7-18.18-1.38.49c-10.71,3.81-30.61,15-37.36,20.91l-1,.87,4.41,6.62c-8,5.8-24.62,21.2-30.48,28.44l-.82,1,6.79,7.3C46.17,84.4,36.46,99.24,32,108.68l-17.5-7-.61,1.26A163.45,163.45,0,0,0,1.79,143.37l-.2,1.37,8.1,1.87a221.83,221.83,0,0,0-1.88,29.28,97.12,97.12,0,0,0,.6,12.16l.18,1.27,10.11.13a163.6,163.6,0,0,0,8.69,37.3l-17,7.11.41,1.31c3.7,11.73,10.29,24.37,19.58,37.54l.81,1.14,7.27-4.39c7.82,10.68,23.14,26.47,28.7,30.13l1,.67,6.9-6.77c6.27,5,23.23,15.48,32.73,20.2l-7.13,16.88,1.29.62a144.91,144.91,0,0,0,40.66,12.63l1.48.25s1.05-6.42,1.38-8.41c14.6,2.28,25.95,2.59,42.51,1.17l1.44-.12s-.4-8-.5-10c16.34-1.93,23.6-3.8,37.47-8.69l7.24,17.23,1.32-.44c14.16-4.67,34.52-17.18,37.54-19.94l.9-.83L269,306.64c9-6.22,22-17,30.44-28.14l.79-1-7-7c7.67-8.31,16.73-23.79,20.7-32.77l17.16,7,.68-1c4.11-6.3,11.75-28.42,12.62-40.84l.09-1.3-8.13-1.72a144.69,144.69,0,0,0,2.25-25.17,84.88,84.88,0,0,0-1.49-17.23l-.29-1.29-9.69.85c-.64-11.72-4.58-27.51-8.41-37.37l16.75-7.36-.39-1.28c-2.92-9.59-14-31.42-19.72-37.58l-.84-.9-7.19,4.46c-9.49-14.93-24-27.44-28.35-31l-1.05-.86-7.42,7.43c-8.13-6.45-23.21-15.91-33.58-20.43,1.14-2.34,8.13-16.77,8.13-16.77l-1.3-.67A133.92,133.92,0,0,0,203,2L201.6,1.8ZM202.45,12s1.07-4.89,1.49-6.79a132,132,0,0,1,37.14,11.5l-8.21,16.93,1.48.6c10.53,4.31,27.34,14.88,35.34,21.46l1.05.87,7.38-7.39c8.87,7.44,20.43,19.09,27.47,30.64l.79,1.29L314,76.35c5.34,6.55,14.7,25,17.85,34.21L314.88,118l.55,1.36c4.06,9.88,8.46,27.27,8.82,39.28l.05,1.58,10.11-.89a85.78,85.78,0,0,1,1.18,15.22,142.94,142.94,0,0,1-2.41,26.13l-.28,1.45,8.38,1.77c-1.21,11.93-7.82,30.64-11.38,37.06l-17.56-7.2-.58,1.38c-3.57,8.63-13.79,26.27-21.68,34.27l-1,1.06,7.22,7.23c-8.64,11-21.47,21.5-30.07,27.27l-1.18.79,4.55,7.6C265,316.77,248,327,235.36,331.45l-7.25-17.25-1.34.48c-14.93,5.3-21.93,7.14-39.54,9.17l-1.4.16s.39,7.82.5,9.95c-16.05,1.3-27.17.9-41.81-1.47l-1.48-.24s-1,6.28-1.37,8.32a141.56,141.56,0,0,1-37.06-11.51l7.11-16.83-1.3-.62C100.84,307.08,81.23,295,76,290.34l-1-.92s-5.73,5.62-7.09,7C61.7,291.72,47,276.28,40.13,266.6l-.81-1.14-7.23,4.36c-8.36-12-14.38-23.53-17.94-34.26l17-7.14-.5-1.35a161.92,161.92,0,0,1-9.17-39.28l-.15-1.31-10.11-.12a102.89,102.89,0,0,1-.45-10.57c0-11,1-24.59,2.07-30l.29-1.43L5,142.45a162.47,162.47,0,0,1,11.07-36.93l17.5,7,.59-1.33c4.16-9.45,15.06-26,21.32-34.32l.76-1-6.7-7.19C56.61,60.34,73.29,45.26,79.73,41L81,40.13,76.4,33.26c6.93-5.59,24-15.11,34-19l7,18.31,1.44-.61c13.79-5.91,23.8-7.9,39.72-9.89l1.29-.16s.1-8.14.13-10.19c11-.91,27.69-1.07,40.7,1.37l1.43.27Z"/><path class="cls-1" d="M325.61,116.37a118.23,118.23,0,0,1,5.81,18.39l.18,1,8.79-1.89c2.66,11.49,4.32,27.41,4.49,43.1l-6.89.22.07,2,8.85-.29v-1c-.12-16.56-1.9-33.56-4.78-45.48l-.23-.95-8.72,1.87a125.72,125.72,0,0,0-5.73-17.84Z"/><path class="cls-1" d="M311.93,257.63l-.59.85,7.55,4.88c-6.25,10-16.34,22.44-27.31,33.65l-5-4.72-1.37,1.46,6.45,6.06.69-.69c11.63-11.79,22.39-25.07,28.79-35.53l.51-.83-7.49-4.85a125.82,125.82,0,0,0,8.57-16.67l-1.87-.72A117.18,117.18,0,0,1,311.93,257.63Z"/><path class="cls-1" d="M211.21,330.39l-1,.17,1.84,8.8c-11.5,2.61-27.43,4.2-43.11,4.29,0-1.51-.19-6.89-.19-6.89l-2,.06.24,8.85h1c16.55,0,33.56-1.73,45.5-4.55l.95-.23s-1.51-7.18-1.83-8.73a127,127,0,0,0,17.87-5.64l-.8-1.84A117.1,117.1,0,0,1,211.21,330.39Z"/><path class="cls-1" d="M46.61,290.49l-.66.71.69.69c11.77,11.65,25,22.44,35.48,28.85l.83.51,4.86-7.48a124.65,124.65,0,0,0,16.65,8.59l.72-1.86a118.11,118.11,0,0,1-17.09-8.94l-.85-.59-4.9,7.53c-10-6.25-22.4-16.36-33.59-27.36l4.72-5L52,284.75Z"/><path class="cls-1" d="M1,167.1H0v1c-.12,16.56,1.44,33.58,4.15,45.54l.22,1,8.74-1.75a126.19,126.19,0,0,0,5.49,17.92l1.84-.79a116.4,116.4,0,0,1-5.55-18.47l-.17-1-8.82,1.76C3.45,200.88,2,185.23,2,169.76v-.68L8.9,169l0-2Z"/><path class="cls-1" d="M54,47.62C42.27,59.33,31.42,72.53,25,82.94l-.52.83,7.46,4.9a125.91,125.91,0,0,0-8.69,16.61l1.86.74a118.12,118.12,0,0,1,9-17l.6-.85-7.51-4.94c6.31-10,16.49-22.31,27.54-33.45l5,4.75L61.09,53l-6.41-6.11Z"/><path class="cls-1" d="M177.71,0C161.15.15,144.15,2,132.24,4.85l-1,.23s1.55,7.17,1.88,8.72a124.29,124.29,0,0,0-17.83,5.75l.81,1.83a117.24,117.24,0,0,1,18.39-5.83l1-.18s-1.57-7.25-1.9-8.79C145.14,3.9,161.07,2.22,176.75,2c.05,1.51.23,6.89.23,6.89l2-.07L178.69,0Z"/><path class="cls-1" d="M240,24.77a129.78,129.78,0,0,1,17.78,9.63l.84.6,5-7.51A159.09,159.09,0,0,1,297,55.17l-4.8,5,1.45,1.39,6.1-6.36-.63-.69a160.43,160.43,0,0,0-35.24-29.23l-.82-.49-4.93,7.42a135.37,135.37,0,0,0-17.34-9.29Z"/><path class="cls-1" d="M261.57,131.38l-56.21,0a6.4,6.4,0,0,0-7.83-3.95c-5.43,1.24-5.88,9.33-2.17,11.37.5,5-7.33,13.42-10.21,15.79a14.12,14.12,0,0,0-6.69-4.33,5.78,5.78,0,0,0-5.23-6.46h-.58a6.14,6.14,0,0,0-5.8,6.46,14.18,14.18,0,0,0-6.69,4.34c-2.87-2.38-10.71-10.79-10.21-15.79,3.71-2.05,3.27-10.14-2.16-11.38a6.4,6.4,0,0,0-7.84,4l-56.21,0c-.33,4.66,4.17,12.25,12.25,15,1.34,6.5,9.16,11.66,12.84,12.16,1.66,6.17,8.75,10.42,15.08,11.75l23.17.09.25.41.08,1.25-3.17,5.17H155V180H142.08c11.25,9.25,14.25,30.08-1.09,43.5h22.54c-.62,1.17.8,5.83,3.38,7,2.92,34.08,1,38.55,5.75,38.52h0c4.75,0,2.83-4.44,5.75-38.52,2.58-1.17,4-5.84,3.39-7h22.53C189,210.05,192,189.22,203.23,180H190.32v-2.75h10.75l-3.17-5.17.08-1.25.25-.42,23.17-.08c6.33-1.33,13.42-5.58,15.08-11.75,3.68-.51,11.5-5.67,12.84-12.17C257.4,143.63,261.9,136.05,261.57,131.38Zm-75.42,84.46h2.29v1.88h-2.29Zm-13.42-63c13.05.08,13.59,16.75,13.34,20.25l-26.84.08C159.23,169.13,159.23,152.71,172.73,152.8Zm-13.16,60.25V177.3h26.5v35.75Zm24.27,2.79v1.88h-2.29v-1.88Zm-5,0v1.88h-2.29v-1.88Zm-5,0v1.88h-2.29v-1.88Zm-4.62,0v1.88h-2.29v-1.88Zm-5,0v1.88h-2.29v-1.88Zm-5,0v1.89H156.9v-1.89Zm-4.32-42.7-4.25,0,.76-1.93V167.5a3.19,3.19,0,0,0-1.59-1.35H126.38c-5.69-.79-11.12-3.94-12-6.91h28.07l-3-4.63H110.41c-2.53-.69-8.12-3.1-9.5-7.35h34.53l-2.31-4.59H97.88c-3.69-.85-7.94-5.44-8.12-6.91h54c-.72-1.75.15-4.73,2.59-4.42s2,4.35-.56,4.42c-1.38,5.53,4.54,17.21,12,22.27C155,163.38,154.87,173.13,154.87,173.13Zm19.78,54.49h0l-2,36.63-2-36.63h0a3.88,3.88,0,0,1-2.28-3.45,3.71,3.71,0,0,1,.06-.67l8.4,0a3.2,3.2,0,0,1,.07.7A3.88,3.88,0,0,1,174.65,227.62Zm13.79-6.45H156.9v-1.5h31.54Zm58.9-78.52H212.09l-2.31,4.6h34.53c-1.38,4.25-7,6.65-9.5,7.35H205.74l-3,4.63h28.07c-.85,3-6.28,6.12-12,6.9H195.43a3.18,3.18,0,0,0-1.59,1.36v3.67l.76,1.94-4.25,0s.13-9.39-2.78-15.14c7.43-5.07,13.27-16.68,11.89-22.21-2.54-.08-3.08-4.1-.56-4.42s3.31,2.67,2.59,4.42h54C255.28,137.22,251,141.81,247.34,142.65Z"/><rect class="cls-1" x="162.15" y="155.07" width="22" height="3.7"/><rect class="cls-1" x="158.63" y="161.07" width="28.75" height="3.7"/><rect class="cls-1" x="158.13" y="167.2" width="29.58" height="3.7"/><path class="cls-1" d="M160.73,179c.09-.42,1-1.69,1.48-.19A10.56,10.56,0,0,1,163,183c-.18.79-.93,2-1.62,1.62a1.86,1.86,0,0,1-.58-2.25C161.21,181.61,160.73,179,160.73,179Z"/><path class="cls-1" d="M160.84,187.72c.3-.92,1-1.32,1.58,0s.46,5,0,5.41c-.66.63-2,.44-1.81-.81.09-.76.42-1.35.19-2A6.18,6.18,0,0,1,160.84,187.72Z"/><path class="cls-1" d="M160.48,196.82c.12-.66,1.3-1.88,2,.15a16.82,16.82,0,0,1,0,6.56c-.31.41-1.48.85-1.56-.25A57.69,57.69,0,0,1,160.48,196.82Z"/><path class="cls-1" d="M160.57,206.44c.11-.65,1-1.93,1.68.09a9.85,9.85,0,0,1-.08,5.06c-.31.42-1.17,1.17-1.69-.44C160.78,209.47,160.4,207.42,160.57,206.44Z"/><path class="cls-1" d="M167.43,197.18c.11-.65,1.14-2.05,1.82,0a13.64,13.64,0,0,1-.13,6c-.31.42-1.51,1.39-1.59.28A47.25,47.25,0,0,1,167.43,197.18Z"/><path class="cls-1" d="M167,206.29c.11-.66,1.43-1.88,2.12.14.53,1.56.59,4.65.28,5.07a1.26,1.26,0,0,1-2.15-.6A13,13,0,0,1,167,206.29Z"/><path class="cls-1" d="M164.09,197.12c.11-.66,1.09-2,1.78,0,.53,1.55-.28,14.3-.59,14.72s-1.16,1.13-1.41-.59C163.66,209.8,163.92,198.1,164.09,197.12Z"/><path class="cls-1" d="M164.31,179c.11-.66,1.44-2.11,1.78,0s.09,14.49-.22,14.9-1.22.91-1.47-.81C164.07,190.87,164.28,179.21,164.31,179Z"/><path class="cls-1" d="M167.87,179c.6-.82,1.22-.82,1.31.37s-.64,4.09.68,1.51c1.17-1,1.58-.75,3.13-2.23,1.12-1.06,2.19.38.6,2.16-.85.95-3.39,2.53-4.25,3.44-1.28,1.34-1.79.69-1.66-.44C167.84,182.5,167.43,179.59,167.87,179Z"/><path class="cls-1" d="M181.49,178.62c-.64-.73-2.53-.78-1.53,1.16s1.53,2,2.32,2.12,2,.1,1.56-.59A34,34,0,0,0,181.49,178.62Z"/><path class="cls-1" d="M172,186.59c.53-.66,2.19-.84,1.88.91s-1.75,3.53-2.38,3.5-.84-.53-.75-1.22A24.15,24.15,0,0,1,172,186.59Z"/><path class="cls-1" d="M181.43,187c-.41-.82-2.65-1.2-1.44.84a7.47,7.47,0,0,0,3.19,3.31c1.09.46,2-.28.88-1.44S181.87,187.84,181.43,187Z"/><path class="cls-1" d="M167.31,188.53c.11-.66,1-2,1.65.06a9.52,9.52,0,0,1-.12,5c-.31.42-1.45,1.07-1.53,0A30,30,0,0,1,167.31,188.53Z"/><path class="cls-1" d="M176.49,178l-.71.81-.6,1.37-.81,1.32-1,1.53-1.19.9-1.28,1.16-1.34,1-1,.66-.21.31.53.12.37.16.66-.5,1.12-.72,1.28-.69,1.6-.78,1.53-.84,1.37-.78.41-.66.19.31.31.28s1.16.72,1.28.85a8.83,8.83,0,0,0,1.13.5l1.53,1.19.59.25.94.71,1.06.38.6.09.53-.31-.1-.56-.75-.6-1.87-1-1.1-1-1.56-1.32-.81-.68-.5-.91-.44-1.09-.22-.82-.09-.87-.66-.25Z"/><path class="cls-1" d="M176.93,185.37l-.65.44-.29.47-.28,1-.22.75-.31.84-.28.53-.31.66-.35.53-.56.47-.34.5-.44.44a5.65,5.65,0,0,1-.56.43,3.27,3.27,0,0,1-.6.35l-.65.59-.56.5-.41.5-.16.41.25.22.5.06,1,0,1.16-.59,1.06-.72,1.5-.85,1.53-.93.56-.5.22-.5.63.56.56.4.78.6.72.84.94.41,1,.69.94.43.78.16.47-.44-.29-1-1.34-.78-1.84-1.5-1.53-1.56-1.13-2-1.09-2.31Z"/><path class="cls-1" d="M171.19,197.88c-1,.38-.29,2.17,1,2.42a7.66,7.66,0,0,0,2.59,0,3.29,3.29,0,0,1-.59,3.17c-.19.26-1.46,1.45-.54,2.16s2,.71,2.34,1.29.5,2-.55,2.38-2.83,0-3.7.33-.84,1.92.54,2.21a69.84,69.84,0,0,0,10.37,0c2.13-.71,1-2.46,0-2.5s-2.2.08-2.7-.46a3,3,0,0,1-.42-2.58c.33-.42,1.92-2.64-1.42-3.59-2.21-.62-.16-2,.13-2.41s4.46-.29,5.46-.75.75-1.75-.84-1.79S171.19,197.88,171.19,197.88Z"/><polygon class="cls-1" points="232.15 190.47 231.65 190.9 231.34 191.47 231.21 192.09 231.21 194.59 230.96 195.34 230.78 196.59 228.53 197.72 226.53 198.84 225.09 199.65 224.53 200.09 224.21 200.84 224.28 201.53 224.9 201.9 226.03 201.9 227.15 201.53 228.03 201.09 228.59 200.4 229.59 200.22 230.59 200.03 230.53 200.97 230.34 202.4 228.34 204.53 227.03 206.22 226.78 207.4 225.84 208.72 225.34 209.59 224.65 210.53 224.15 211.47 224.21 212.15 224.84 212.72 225.71 212.78 226.84 212.34 227.28 212.03 228.03 211.97 228.59 211.59 229.59 210.34 230.34 209.53 230.46 210.47 230.78 212.28 230.96 213.9 231.78 214.84 232.46 214.81 233.53 214.09 233.78 213.15 233.4 211.72 233.15 210.53 233.03 209.4 233.15 206.59 233.59 205.72 234.28 204.47 235.28 203.47 235.59 202.59 235.4 201.72 234.96 201.59 234.34 201.72 233.59 202.03 233.53 200.9 233.59 199.59 233.9 198.4 234.59 197.53 235.65 196.9 235.93 196.28 235.71 195.65 233.65 195.72 233.62 195.12 233.59 194.28 233.53 193.65 233.84 193.22 233.9 192.03 233.71 191.15 233.34 190.59 232.84 190.34 232.15 190.47"/><polygon class="cls-1" points="237.47 200.18 237.28 200.68 237.28 201.02 237.6 201.21 238.22 200.93 241.38 199.3 244.66 198.58 247.35 197.74 250.16 197.49 250.75 197.33 250.72 196.77 250.25 196.33 249.63 195.99 249 196.08 247.6 196.43 246.22 196.83 244.5 197.43 240.69 198.74 238.94 199.3 238.07 199.77 237.47 200.18"/><path class="cls-1" d="M241.22,191.68l-.34.25-.44.31,0,3-.15.53-.66.06-.56.1-.85.18a3.76,3.76,0,0,0-.18,1.13c.06.28-.41.69.56.91s1.19-.44,1.53-1,.62-.25.66.1.12.65.37.62,1.06.25.75-.31-.22-1,.25-.87c.25-3,.25-4,.13-4.32S241.22,191.68,241.22,191.68Z"/><polygon class="cls-1" points="245.72 189.46 245.07 189.86 244.63 190.46 244.35 191.15 244.35 191.9 244.32 193.55 243.97 194.11 243.91 195.15 243.5 195.68 242.69 196.71 242.41 197.58 242 197.8 241.97 198.11 242.32 198.27 244.5 197.43 244.22 197.02 244.63 196.27 245.53 196.15 246.28 195.77 247.75 195.43 248.63 195.08 249.16 194.74 249.85 194.4 249.91 193.55 249.07 192.83 247.28 193.24 246.41 194.36 245.78 194.02 245.97 192.68 246.41 191.99 246.72 190.65 246.88 190.08 246.44 189.52 246.1 189.27 245.72 189.46"/><path class="cls-1" d="M246,211.3c1.5.5,6.19,2.13,2.82,3.84-1,.53-1.85.25-3.38.54s-.78-1.07.16-1.38,1.69-1.12,1.06-1.31c-1.4-.42-1.72-1.13-1.34-1.25C245.91,211.55,245.89,211.36,246,211.3Z"/><polygon class="cls-1" points="241.16 199.96 240.44 200.3 239.94 201.11 240.07 202.49 240.38 203.27 240.25 203.99 239.63 204.4 239.66 204.8 240.35 205.08 241.38 204.68 241.97 204.4 242.35 204.43 242.32 205.15 242 205.93 241.88 207.77 240.19 209.36 239.97 209.93 240.28 210.55 240.72 210.8 241.44 210.49 242.03 210.27 241.94 211.05 241.63 212.3 241.47 212.9 242.1 213.33 242.88 213.46 243.47 213.05 244.16 211.77 244.57 210.27 245.03 209.46 246.47 209.3 247.66 208.83 247.78 207.86 246.69 207.74 246.03 207.96 245.25 207.86 244.94 207.3 245.38 206.74 245.82 206.15 246.25 205.68 246 205.15 245.47 205.05 244.72 205.24 244.25 205.02 243.72 204.83 244.03 204.43 244.47 203.86 245.13 203.61 245.94 203.27 246.35 203.21 246.72 203.49 247.1 203.46 247.25 202.99 247 202.58 245.97 202.43 244.97 202.52 244.97 202.15 245.16 201.55 246 200.86 246.82 199.8 247.47 199.55 247.66 199.18 247.41 198.65 246.91 198.52 246.25 198.74 245.97 199.11 245.69 199.43 245.63 199.61 245.32 200.08 245.1 200.33 244.75 200.74 244.32 201.15 243.82 201.68 243.16 202.08 242.78 202.4 242 202.27 241.72 201.46 241.53 200.55 241.63 200.02 241.38 199.74 241.16 199.96"/><polygon class="cls-1" points="207.8 190.71 207.22 190.97 207.26 192.05 207.95 192.92 208.52 193.78 208.81 194.51 208.38 194.87 206.93 195.12 206 195.48 205.24 195.23 204.77 194.69 204.3 194.98 203.9 195.38 203.57 195.99 203.43 196.68 203.93 197.22 204.8 197.69 206.39 197.76 208.16 197.62 209.93 196.97 211.42 195.95 212.39 195.48 214.42 195.41 215.97 195.41 216.87 195.88 216.91 197.25 216.11 197.8 214.63 198.45 211.81 198.45 209.72 198.56 208.24 198.84 207.69 199.57 207.8 200.76 208.09 201.34 207.95 201.95 207.37 202.82 207.37 204.41 206.93 205.71 205.89 207.08 205.34 208.13 204.95 209.22 205.09 210.12 205.74 210.7 206.5 210.55 207.04 210.16 208.05 209.98 208.89 210.05 208.67 210.81 207.66 212.32 207.22 212.94 207.19 213.59 207.44 214.02 208.05 214.28 208.71 213.91 209.43 212.9 209.83 211.49 210.22 211.17 210.55 210.08 211.2 209.32 212.86 209.07 214.49 208.24 215.64 207.23 215.5 206.33 214.24 206.22 213.26 205.89 212.72 205.13 211.63 204.99 211.24 204.74 210.8 204.74 210.4 205.13 210.08 206 209.97 207.05 209.72 208.02 209.32 208.6 208.27 208.85 206.9 209.04 206.5 208.64 206.86 207.74 207.33 206.98 207.84 206.11 208.49 205.53 209.28 205.31 209.68 204.81 209.72 204.34 209.36 203.87 208.89 203.51 208.81 202.28 209.03 201.92 209.93 201.66 210.33 201.27 210.22 200.47 209.83 200.15 209.54 199.71 209.68 199.35 211.2 199.28 213.33 199.28 214.92 199.24 216.11 198.88 217.23 198.37 218.14 197.94 218.5 197.18 218.5 195.88 218.1 194.98 217.41 194.11 216.26 193.86 215.03 193.6 213.19 193.57 212.54 193.86 211.96 193.21 211.78 192.19 211.09 191.76 210.33 191.29 209.47 191.18 208.67 190.82 207.8 190.71"/><polygon class="cls-1" points="213.11 211.17 213.57 210.84 215.23 211.3 216.23 211.63 216.94 212.13 216.9 213.01 216.36 213.55 215.15 213.88 214.53 213.88 214.07 213.72 213.48 213.34 213.36 212.88 213.53 212.3 213.4 211.88 213.11 211.17"/><polygon class="cls-1" points="125.98 197.8 125.65 198.13 125.69 199.09 125.65 200.67 125.32 201.84 124.98 203.97 124.86 205.26 124.36 206.42 124.03 207.01 124.15 208.26 124.36 208.55 124.78 208.59 125.23 208.26 125.69 207.8 126.07 207.05 126.4 206.55 126.65 205.88 126.78 204.76 127.11 203.8 127.19 201.84 127.32 201.17 127.19 200.22 126.94 199.26 126.69 198.26 126.48 197.8 125.98 197.8"/><polygon class="cls-1" points="127.65 196.22 127.53 196.59 127.78 196.92 128.36 196.92 129.11 196.76 129.78 196.34 131.07 195.84 132.82 195.55 133.4 195.38 134.15 195.97 134.48 196.88 134.61 202.3 134.07 204.8 133.57 206.09 132.73 206.09 132.36 206.3 133.07 207.09 133.4 207.97 133.98 208.97 134.53 209.34 135.07 209.05 135.65 208.34 136.03 207.26 136.23 202.59 136.44 201.42 136.07 198.55 135.65 196.42 134.9 195.01 133.53 194.38 132.69 194.22 131.32 194.51 129.69 195.01 128.48 195.55 127.65 196.22"/><polygon class="cls-1" points="138.37 198.62 137.96 199.22 137.9 200.34 137.99 202.56 138.43 203.59 138.9 204.28 139.43 204.18 139.59 203.62 139.43 202.65 139.46 201.65 139.59 200 139.37 199.09 138.93 198.75 138.37 198.62"/><polygon class="cls-1" points="141.71 191.93 141.15 192.18 140.71 192.68 140.65 193.78 140.9 201.87 141.15 205.65 140.99 208 140.06 209.25 138.46 209.5 138.18 210.31 138.9 210.93 140.31 211.34 142.65 210.25 143.65 208.72 143.46 206.81 143.15 198.06 143.06 194.84 142.84 192.15 142.4 191.84 142.09 191.75 141.71 191.93"/><path class="cls-1" d="M133.4,201.62l-.81-.65,0-1.16.62-1.19.07-1.28-.25-.5-.66-.53-.5.44-.12.68-.25,1.5-.35.72-.47-.18-.18-.94h-1.25l-.41,1,.28.56-.59.69-.5.65-.16,1.85-.28,1,.09.9.35.6,1,.09,1.09-.31.94-.91.94-.9,1.18-.38.38-.75Zm-3.84,3.13-.5-.38v-.69l-.1-.62.16-.31.28-.22.16.62.15.57Zm1.93-1.82-.53,0V202l0-.85.31-.5.29.25.12.44,0,.88Z"/><polygon class="cls-1" points="99.93 185.75 100.78 186.12 101.9 186.81 102.53 187.53 102.53 188.06 102.15 188.72 101.65 189.15 100.65 189.59 99.87 189.4 99.93 188.65 99.93 187.62 99.65 187.09 99.71 186.59 99.84 186.09 99.93 185.75"/><polygon class="cls-1" points="99.09 190.81 100.09 190.75 100.74 190.97 101.62 191.37 102.06 192.12 101.96 192.59 101.49 193.47 100.87 193.84 100.12 193.56 99.87 192.68 99.46 192.18 99.18 191.59 98.99 191.18 99.09 190.81"/><path class="cls-1" d="M116.93,207.65l-.81-.84-.81-.13-.94-.28-1-.62-.59-.85.43-.56L114,203l.19-1.1-.06-1-.78-.43-.91-.1-.47-.28-.37,0-.31.25h-.79l-.4-.94.09-1.25L111,197l1-.38.53-.81.63-.94.31-1-.12-1.44-.82-.53-.46-.28-.82.44-.78.53-1.15,1.16-.91,1-1.16,1.15-1.06,1.19-.94,1-.62,1.25-.85,1.81-.5,1.5L102.9,204l-.47.87-.62.07-.16-.72,0-.94-.34-.56-1-.13-.66-.4-.41-1.16.41-1.5,1.19-1.72.84-1,.28-.56-.22-.72-.87-.35-.66-.18-.75.68-1,.88-1.34.59-1.22.22-.66-.25-.34-.19-.41.19-.43.31-.29.69,0,.66.16.59.59.19,1,.12,1.19-.4.94-.63.65-.25.19.25,0,1.47-.09,2-.25,1.44-.56.31-1.16.35-1.59.4-.91.25-.37.88-.19,1.47v1.25l.75,1.15,1.15.91,1.57-.13,2-.56,1.81-.37,1.06-1.16.47-.69.09-1.34.6-.44,1-2,.62-2.34,1.63-2.72.9-1.32,1.44-1.25,1.41-1.18,1-.75.28.37-.41,1.06-.81.44-1,.63-.62,1.28-.38,1.4.09,1.63.44,1.16.75.25.47-.29.66-.37.78-.38,1.06,0,.47.34-.19,1.06-.5,1.28-.69.85-.81-.47-1.25-.35-1.06-.15-.59-.16-.38.31,0,.38.37.37.91.25.91.47.5.63.22.72-.32.68-.72.1-.78-.69-.43-.41-.85.19-.34.47.22.75,1.18.47,1.25.44,1,.34.85-.41.53-1.18,1,.09.66.44.09.72-.81.43-.53.41.12.5.72,0,1.91-.28,1.65-.09.41-.5.44-.94Zm-16.37.47-.72.31-1.47.6-1.16.15-1.15.07-.72-.28-.56-.82v-1.43l.43-.57.94-.62.84-.28.72-.19h.57l.25.28-.16.38-.5.31-.25.37-.22.82.31.37.41.34.66-.21.43-.32.38-.47.75-.28.5.32,0,.53Z"/><path class="cls-1" d="M284.9,97.59c.92,1.29-3.33,5.63-7.25,3.75C277.44,100.05,282.07,100.63,284.9,97.59Z"/><path class="cls-1" d="M274.69,102.76c-3.21-.25-11.91,4-11.79,7.21C265.73,105.8,273.15,105,274.69,102.76Z"/><path class="cls-1" d="M287.65,99.55c.43,1-4.57,6.91-10.08,7-5.21.13-10,1.83-14.54,7.92-1-2.13,4.08-7.42,11-9.09C276.61,104.79,281.82,105,287.65,99.55Z"/><path class="cls-1" d="M288.2,102.49c1.05,1.19-2.72,6-6.81,4.5C281.05,105.72,285.71,105.81,288.2,102.49Z"/><path class="cls-1" d="M277.88,108.49c-3.21-.25-12.31,2.89-11.19,6.85C269.28,110.72,276.19,111.22,277.88,108.49Z"/><path class="cls-1" d="M216.23,44.42c1.53.41.51,7.48-3.7,8.55C211.54,52.11,216,48.58,216.23,44.42Z"/><path class="cls-1" d="M211.4,54.17c-2.46,2.46-8.42,12-4.75,16.09C206.17,65.24,212.4,56.3,211.4,54.17Z"/><path class="cls-1" d="M220.4,45.26c.71,1.12-.05,8-4.21,11.62-3.92,3.43-5,10-5.54,16-2.1-1-2.18-9.07,2-14.75C214.31,55.92,218.32,53,220.4,45.26Z"/><path class="cls-1" d="M223,47.19c2.32.19.45,8.15-3.68,9.48C218.32,55.88,223.07,51.34,223,47.19Z"/><path class="cls-1" d="M218,58.48c-2.49,2-5.45,7-4,15.53C215.57,65.76,218,59.47,218,58.48Z"/><path class="cls-1" d="M225.61,54.13c-.93-.31-2.08.34-.79,1.46s2.16-.08,1.2,2.46-3.16,8.33-3.41,8.71-.17,1.87-2.46,1.66-2.79-.45-3.21-.33-1.54.75,0,1.42,4.25,1.62,4.79,2,2.88,1.79,3.25,2.12,3.73,1.3,1.59-1.25a3.4,3.4,0,0,0-2-1.42c-1.27-.37-1-2.08-.41-3.08s3.25-8.79,3.79-9.12-.77-1.37,2-1a5.14,5.14,0,0,1,1.25.29c.83.28,2.75.37.83-1.09A20.87,20.87,0,0,0,225.61,54.13Z"/><path class="cls-1" d="M290.44,105.87c.84,1.34-3.65,5.42-7.45,3.32C282.85,107.89,287.44,108.74,290.44,105.87Z"/><path class="cls-1" d="M278.26,113.33c.6,1.47-4.51,4.74-7.91,2C270.44,114.05,274.82,115.66,278.26,113.33Z"/><path class="cls-1" d="M276.86,126.32c-1.32-.89,1.12-6.45,5.45-6.08C283,121.37,278.43,122.47,276.86,126.32Z"/><path class="cls-1" d="M288.82,119c-1.32-.87,1.07-6.45,5.4-6.13C294.88,114,290.36,115.16,288.82,119Z"/><path class="cls-1" d="M291.61,109.47a57.83,57.83,0,0,0-5.85,2.56c-3.54.74-6.82-1.34-7.18-.2,1.62,2.11,4.41,2.19,6.27,1.58a29.43,29.43,0,0,0-.82,5.81c-.34,2.79,1.12,4.79,1,2-.13-4.36,2.08-8.63,6.08-10C294.85,109.86,292.56,109,291.61,109.47Z"/><path class="cls-1" d="M279.78,116.31c-.89.44-4.69,1.55-6.13,2.49-3.55.74-8.63-2.35-9-1.21.92,2.67,6.5,3.27,8.36,2.66a61.91,61.91,0,0,0-1.57,6.13c-.62,3.79.49,4.92,1.17,2.21,2-8,2.71-9.16,6.71-10.57C283,116.71,280.73,115.83,279.78,116.31Z"/><path class="cls-1" d="M133.53,51.78c-7.69.75-11.55,3.9-15.19,7.75-.36.37-2.38,1.25-2.19-.88.44-5.18,14.63-11.68,20.13-8.25C135.3,50.48,138.65,51.84,133.53,51.78Z"/><path class="cls-1" d="M123.09,48.59c.51,1.76,4.19,12,4.62,16,.31,6.81-6.84,13.1-5,14.06,4.88-3.5,6.13-8.18,7.19-12.25,3,1.64,6.27,4.07,7.56,4.5,6.26,2.09,7,.73,2.63-1.18-13.09-5.7-7.38-5.19-14.5-20.44C122.71,43.12,122.58,46.86,123.09,48.59Z"/><path class="cls-1" d="M59.74,97.78c-.79-.5-2.6-.12-.25,2.19-.38.77-.82,2-1,2.28-.43.68.09,2,.79.75A10.81,10.81,0,0,1,61,100.76a9.86,9.86,0,0,1,2.41,1.33c-.29.79-.57,2.12-.75,2.41-.44.68,0,1.77.72.56a11.6,11.6,0,0,1,1.3-1.93,3.89,3.89,0,0,1,1.39,2c0,1-.51,4.45,1.5.31C69.3,101.75,63.13,99.9,59.74,97.78Z"/><path class="cls-1" d="M59,118c-.3.34-1.28-.22-2.06-.78A21.88,21.88,0,0,0,58,114.83c.72-2.27-.52-1-.86-.3-.14.3-1.11,1.27-1.62,1.93a9.86,9.86,0,0,1-2.42-1.3,15.15,15.15,0,0,1,1-2.63c1.41-3.06-.71-1-1-.25-.14.3-.93,1.34-1.37,2.07-3.57-.29-3.07,1.24-1.71,1.41,4,.49,9.14,7.58,10.63,2.4C61.73,114.05,59.59,117.34,59,118Z"/><path class="cls-1" d="M60.57,103.73a5.52,5.52,0,0,1-2.64,1.93c-.33-1.8-1.08-3.28-1.81-3a23.19,23.19,0,0,1,.27,3.33,3.24,3.24,0,0,0-2.33,3,17.4,17.4,0,0,1,2.34-1.28c0,1.72,0,2.92.59,3,.9-.65,1.17-2.19,1.09-3.75C59.91,106.1,61,104.18,60.57,103.73Z"/><path class="cls-1" d="M64.45,107c-1.17.59-1.44,1.21-2.47,1.56-.37-1.55-1.25-2.91-2-2.58a25.87,25.87,0,0,1,.28,3.52c-2.09.58-3.33,2.86-1.81,2.35.89-.57,1.19-.31,1.84-.61.44,1.37.17,2.94.76,3,.9-.65,1.13-2.38,1-3.94C64,109.49,64.83,107.49,64.45,107Z"/><path class="cls-1" d="M73.68,128.62c.86,1-.07,1.81-3.07,0-4.54-2.73-7.88-4.15-8.45-8a11.1,11.1,0,0,1,2.09-9c2-2.82,2.82-5.24,6-5.86,4.89-.94,10.51,2.48,13,4,2,1.19,1.09,1.73.07,1.73-2.09,0-8.56-4.26-10.66-4.3s-3.79,0-6.36,3.33a12.64,12.64,0,0,0-2.85,7,4.93,4.93,0,0,0,1.3,4.52,13.78,13.78,0,0,0,5.27,4A13.57,13.57,0,0,1,73.68,128.62Z"/><path class="cls-1" d="M68.52,122.37c3.21-.32,9-5.05,7.63-10.91-.12-.51-1.34-2.21.64-.76,3.69,3-.43,14.78-8.78,12.4C67.07,122.66,67.61,122.23,68.52,122.37Z"/><path class="cls-1" d="M72.2,115.69c.74-1,4.41,2,5.28,3a4.18,4.18,0,0,0,3.61.9c.73-.22,1.2,2-2.49,1.48-.91-.11-3.68-1.68-5.46-3.9C72.85,116.81,72,115.94,72.2,115.69Z"/><path class="cls-1" d="M67.18,111.67c-.6.73-.85,1.12-1.52,3.73-.83,3.25,1.41,4.48,3,4.19s3.07-.69,4.52-5C74.49,110.7,69.57,108.78,67.18,111.67ZM71.55,114c-.25,2.91-1.08,3.07-2.09,3.72-1.73,1.11-2.71,0-2.32-1.63a17.23,17.23,0,0,1,1.45-3.43C69.13,111.39,71.88,110.3,71.55,114Z"/><path class="cls-1" d="M39,179.57l20.2-1.33-.47-7.17,4.12-.28,1.27,19.28-4.12.27-.47-7.18-20.21,1.33Z"/><path class="cls-1" d="M51.12,198.35l9.5,1.05-8,5.41Zm15.65,2.35-1.24-5.2-25.86-3.42,1.22,5.15,5.87.64L49,207.29l-4.93,3.34,1.23,5.16Z"/><path class="cls-1" d="M47.28,221.19l21.9-10.69,3.25,6.66-13,11.22L76.23,225l3.26,6.67L57.58,242.31l-2-4.1,17.23-8.45-19.34,4.13-2.08-4.27L66.54,216.9l-17.26,8.39Z"/><path class="cls-1" d="M62,248.88l19.08-15.17,3.07,3.86-8.41,6.69,14.59,1.08,4.12,5.17L81.35,249.2,75.63,266l-3.94-5,4.79-12.35-5.64-.57-5.77,4.6Z"/><path class="cls-1" d="M90.62,266.34l8.24-4.84-3.15,9.1Zm13.95-7.48-4.1-3.43L77.69,268.16l4.06,3.39,5.09-3,7.43,6.21-2,5.62,4.07,3.4Z"/><path class="cls-1" d="M101.08,286.69l11.53-21.48,4.21,2.26,1.07,19.08,7.72-14.36,4,2.16L118.1,295.82l-4.34-2.33-1.12-18.69-7.54,14Z"/><path class="cls-1" d="M139,293.57l1.14-4,10.15,2.91-2.69,9.37a13.39,13.39,0,0,1-5,1.29,16.56,16.56,0,0,1-6-.55,13.28,13.28,0,0,1-5.95-3.38,10.26,10.26,0,0,1-2.83-5.6,15,15,0,0,1,.42-6.64,14.3,14.3,0,0,1,3.4-6.08,10.81,10.81,0,0,1,5.74-3.08,12.57,12.57,0,0,1,5.94.44,11.67,11.67,0,0,1,6.28,3.77,8.54,8.54,0,0,1,1.7,5.93l-4.94-.44a5.16,5.16,0,0,0-1.08-3.26,5.83,5.83,0,0,0-3.12-2,6.64,6.64,0,0,0-5.49.57q-2.38,1.44-3.5,5.33c-.81,2.8-.79,5.07,0,6.82a6.44,6.44,0,0,0,4.26,3.49,8.22,8.22,0,0,0,3.15.27,10.45,10.45,0,0,0,3-.68l.86-3Z"/><path class="cls-1" d="M164.1,282.9l4.94,0,.07,13.27a28.39,28.39,0,0,0,.2,4.09,4,4,0,0,0,1.5,2.41,5.16,5.16,0,0,0,3.23.89,4.86,4.86,0,0,0,3.12-.87,3.44,3.44,0,0,0,1.26-2.12,28,28,0,0,0,.19-4.17l-.07-13.55,4.94,0,.06,12.81a32.67,32.67,0,0,1-.36,6.21,6.9,6.9,0,0,1-1.45,3.07,7.49,7.49,0,0,1-2.85,2,12.39,12.39,0,0,1-4.67.77,13.46,13.46,0,0,1-5.28-.78,7.55,7.55,0,0,1-2.86-2.08,6.84,6.84,0,0,1-1.39-2.7,30.8,30.8,0,0,1-.51-6.19Z"/><path class="cls-1" d="M191.56,306.34l-5.07-23.84,4.67-1,13.15,13.88-3.39-15.95,4.46-.95,5.07,23.84-4.82,1L192.71,289.8,196,305.39Z"/><path class="cls-1" d="M216.83,300l-8.36-22.9,4.64-1.69,8.36,22.9Z"/><path class="cls-1" d="M232.79,293.3l-18.86-17.65,4.72-2.47,13.76,13.19-3.12-18.75,4.63-2.42,3.7,25.57Z"/><path class="cls-1" d="M249.43,283.8l-15.11-19.13,14.17-11.2,2.56,3.24-10.3,8.14,3.33,4.22,9.56-7.56,2.56,3.24-9.56,7.55,4.11,5.2,10.64-8.41,2.56,3.24Z"/><path class="cls-1" d="M256.71,250.67l2.48-2.9c1.29-1.5,2.08-2.39,2.38-2.65a3,3,0,0,1,1.93-.78,2.92,2.92,0,0,1,1.93.8,3.15,3.15,0,0,1,1.07,1.56,2.59,2.59,0,0,1-.11,1.71,18.43,18.43,0,0,1-2.63,3.54l-2.35,2.74Zm15.39,13.16-7.74-6.62.65-.76a8.28,8.28,0,0,1,1.82-1.71,3.73,3.73,0,0,1,1.74-.47,34.28,34.28,0,0,1,4.41.34l6.35.77,3.78-4.42-5.55-.84a28.56,28.56,0,0,0-4.81-.47,11.7,11.7,0,0,0-3.25.65,7.53,7.53,0,0,0,1.38-5.07,6.56,6.56,0,0,0-2.4-4.15,7,7,0,0,0-3.61-1.69,5.58,5.58,0,0,0-3.61.63,17.66,17.66,0,0,0-4.18,3.87l-6.71,7.85,18.52,15.85Z"/><path class="cls-1" d="M278.42,243.67l2-4.41a5.69,5.69,0,0,0,3.87.18,5.38,5.38,0,0,0,2.7-2.56,5.47,5.47,0,0,0,.89-3.59,3,3,0,0,0-1.43-2.18,2.16,2.16,0,0,0-1.51-.27,4,4,0,0,0-1.77,1c-.46.4-1.41,1.37-2.86,2.89a13.36,13.36,0,0,1-4.83,3.62,6.39,6.39,0,0,1-5.39-.47,6.3,6.3,0,0,1-2.53-2.63,6.55,6.55,0,0,1-.67-3.86,11.88,11.88,0,0,1,1.6-4.58q2.24-4,5.12-5a7.13,7.13,0,0,1,5.87.52l-2.25,4.39a4.21,4.21,0,0,0-3-.14,5,5,0,0,0-2.24,2.3,5.61,5.61,0,0,0-.86,3.35,1.76,1.76,0,0,0,.93,1.41,1.9,1.9,0,0,0,1.65.09,13,13,0,0,0,3.64-3.12,24.29,24.29,0,0,1,4.13-3.75,6.87,6.87,0,0,1,3.48-1.13,7.69,7.69,0,0,1,6.72,4,7,7,0,0,1,.76,4.2,13.73,13.73,0,0,1-1.82,5.06c-1.51,2.69-3.29,4.4-5.33,5.15A9.23,9.23,0,0,1,278.42,243.67Z"/><path class="cls-1" d="M297,225l-22.64-9,1.83-4.59,22.64,9Z"/><path class="cls-1" d="M302.44,209.29l-19.59-5.11L281,211.13l-4-1,4.87-18.68,4,1-1.82,7,19.6,5.11Z"/><path class="cls-1" d="M306.81,185.78,296.58,185l-14.76,7.79.45-5.81,10.05-4.92-9.18-6.32.43-5.63,13.43,10,10.19.78Z"/></g></svg>